<svg width="169" height="169" viewBox="0 0 169 169" fill="none" xmlns="http://www.w3.org/2000/svg"><path d="M168.3 137.03l.1-105.5C168.42 14.19 154.37.11 137.02.1L31.52 0C14.17-.02.11 14.03.09 31.37L0 136.87c-.02 17.35 14.03 31.41 31.37 31.43l105.5.1c17.34.02 31.42-14.03 31.43-31.37zm-132.72-4.21c-26.81-26.81-26.81-70.43 0-97.23.7-.7 1.41-1.37 2.13-2.03l6.36 6.36c-.72.66-1.44 1.33-2.13 2.03-23.3 23.3-23.3 61.21 0 84.5 23.3 23.3 61.21 23.3 84.5 0 23.3-23.3 23.3-61.21 0-84.5-16.2-16.2-39.46-21.12-59.96-14.8l11.93 11.93-3.23 7.2c6.63-.6 13.52 1.97 18.99 7.43.11.11.21.23.32.34l.19.16c5.22 5.24 7.66 11.72 6.2 18.47 6.83-.84 14 1.75 19.65 7.39 8.91 8.92 10.17 20.49-1.26 31.92l-21.46 21.46-10.88-10.88 19.8-19.78c6.06-6.06 6.13-11.57 1.73-15.97-4.87-4.87-11.42-5.15-18.12 1.53l-18.82 18.82-10.86-10.86 19.78-19.8c6.06-6.06 6.28-11.42 1.75-15.95-.02-.02-.04-.03-.05-.05-4.81-4.77-11.34-5.02-17.99 1.66L45.33 80.99 34.45 70.11l29.82-29.82-8.61-8.61-6.61-6.61c3.33-1.97 6.79-3.63 10.33-4.99 24.6-9.46 53.58-4.31 73.39 15.5 26.81 26.81 26.81 70.42 0 97.23-26.76 26.81-70.38 26.81-97.19.01z" fill="#FFB600"/></svg>